<?xml version="1.0" encoding="utf-8"?>
<!-- Generator: Adobe Illustrator 21.0.0, SVG Export Plug-In . SVG Version: 6.00 Build 0)  -->
<svg version="1.1" id="Layer_1" xmlns="http://www.w3.org/2000/svg" xmlns:xlink="http://www.w3.org/1999/xlink" x="0px" y="0px"
	 viewBox="0 0 250 250" style="enable-background:new 0 0 250 250;" xml:space="preserve">
<style type="text/css">
	.st0{fill:#FFFFFF;}
	.st1{fill:#4666AE;}
</style>
<g>
	<g>
		<path class="st1" d="M187.5,96.8v61.9h-87.1c-5,0-9.1-4.1-9.1-9.1V120h10.8v26.5c0,0.7,0.6,1.4,1.4,1.4h73.3V97.6
			c0-13.4-10.9-24.3-24.3-24.3H62.5V62.5h90.7C172.1,62.5,187.5,77.9,187.5,96.8"/>
		<path class="st1" d="M62.5,153.2V91.3h87.1c5,0,9.1,4.1,9.1,9.1V130h-10.8v-26.5c0-0.8-0.6-1.4-1.4-1.4H73.3v50.4
			c0,13.4,10.9,24.3,24.3,24.3h89.9v10.8H96.8C77.9,187.5,62.5,172.1,62.5,153.2"/>
	</g>
</g>
</svg>
